<svg xmlns="http://www.w3.org/2000/svg"  viewBox="0 0 32 32" width="32px" height="32px" baseProfile="basic"><path fill="#79b5ba" d="M16,4C8.268,4,2,9.373,2,16c0,2.616,0.988,5.029,2.646,7.001L4,28l6.403-1.004	C12.118,27.638,14.009,28,16,28c7.732,0,14-5.373,14-12S23.732,4,16,4z"/><path fill="#fff" d="M6,16H5c0-4.878,5.038-9,11-9v1C10.58,8,6,11.664,6,16z"/><path fill="#302529" d="M2.837,29.194l0.761-5.896C1.897,21.134,1,18.619,1,16C1,8.832,7.729,3,16,3s15,5.832,15,13	s-6.729,13-15,13c-1.965,0-3.88-0.328-5.698-0.976L2.837,29.194z M10.507,25.967l0.246,0.092C12.42,26.684,14.185,27,16,27	c7.168,0,13-4.935,13-11S23.168,5,16,5S3,9.935,3,16c0,2.283,0.833,4.481,2.411,6.357l0.282,0.336l-0.531,4.112L10.507,25.967z"/></svg>